<svg
   xmlns:dc="http://purl.org/dc/elements/1.1/"
   xmlns:cc="http://creativecommons.org/ns#"
   xmlns:rdf="http://www.w3.org/1999/02/22-rdf-syntax-ns#"
   xmlns:svg="http://www.w3.org/2000/svg"
   xmlns="http://www.w3.org/2000/svg"
   viewBox="0 0 545.41333 438.61334"
   height="438.61334"
   width="545.41333"
   xml:space="preserve"
   id="svg2"
   version="1.1"><metadata
     id="metadata8"><rdf:RDF><cc:Work
         rdf:about=""><dc:format>image/svg+xml</dc:format><dc:type
           rdf:resource="http://purl.org/dc/dcmitype/StillImage" /></cc:Work></rdf:RDF></metadata><defs
     id="defs6" /><g
     transform="matrix(1.3333333,0,0,-1.3333333,0,438.61333)"
     id="g10"><g
       transform="scale(0.1)"
       id="g12"><path
         id="path14"
         style="fill:#e1eef5;fill-opacity:1;fill-rule:nonzero;stroke:none"
         d="M 394.398,519.398 C 350.699,539 285.5,555.102 218.602,571.199 c -66,16 -91.903,37.403 -91.903,74.903 0,44.597 36.602,69.597 106.199,69.597 75,0 111.5,-29.398 117.801,-90.097 H 468.5 c -4.5,113.296 -88.398,194.5 -238.301,194.5 -144.5974,0 -216.8006,-75.801 -216.8006,-182 0,-75 35.7032,-117.801 99.0036,-146.403 41.996,-18.699 89.297,-29.398 162.399,-45.5 74.097,-16 92,-40.097 92,-74.898 0,-52.699 -42,-83.903 -115.199,-83.903 -79.403,0 -130.301,37.5 -132,98.102 L 0,385.5 C 2.69922,252.602 104.398,187.398 250.699,187.398 c 138.403,0 236.5,58 236.5,188.301 0,83.903 -41,120.5 -92.801,143.699" /><path
         id="path16"
         style="fill:#e1eef5;fill-opacity:1;fill-rule:nonzero;stroke:none"
         d="m 998.602,658.602 c -55.403,0 -94.602,-21.403 -118.7,-69.602 -33.902,50.898 -62.5,69.602 -122.3,69.602 -58,0 -99,-17.801 -128.5,-75.801 V 647 H 520.199 V 207.898 h 116 v 266.903 c 0,57.097 24.102,85.597 70.5,85.597 50.903,0 69.602,-17.796 69.602,-88.296 V 207.898 h 116.101 v 262.403 c 0,53.597 31.2,93.699 73.996,93.699 41.102,0 68.702,-37.5 68.702,-90.102 v -266 h 113.4 v 304.403 c 0,82.097 -61.6,146.301 -149.898,146.301" /><path
         id="path18"
         style="fill:#e1eef5;fill-opacity:1;fill-rule:nonzero;stroke:none"
         d="m 1459,374.801 c -0.9,-51.699 -45.5,-95.5 -105.3,-95.5 -36.6,0 -56.2,16.097 -56.2,49.097 0,37.5 21.4,56.204 87.5,68.704 42.8,8.097 63.3,14.296 74.9,25.898 z m -70.5,283.801 c -141,0 -191,-63.301 -192.7,-154.403 h 107.9 c 5.4,39.301 26.8,65.199 79.5,65.199 45.5,0 74,-17 74,-45.5 0,-30.398 -16,-42 -74,-50 -116.9,-16.097 -201.7,-30.398 -201.7,-157.097 0,-71.403 46.4,-120.5 146.3,-120.5 58.9,0 105.3,20.597 133,50.898 0.9,-13.398 3.6,-28.5 7.1,-39.301 h 108 V 485.5 c 0,110.602 -48.2,173.102 -187.4,173.102" /><path
         id="path20"
         style="fill:#e1eef5;fill-opacity:1;fill-rule:nonzero;stroke:none"
         d="m 1865.9,658.602 c -47.3,0 -91.9,-5.301 -130.3,-64.204 V 647 H 1626.8 V 207.898 h 116 v 228.5 c 0,70.5 34.8,106.204 106.2,106.204 10.7,0 21.4,-0.903 32.1,-2.704 v 118.704 h -15.2" /><path
         id="path22"
         style="fill:#e1eef5;fill-opacity:1;fill-rule:nonzero;stroke:none"
         d="M 2270.2,564.898 V 647 H 2027.5 V 765.699 H 1913.2 V 373 c 0,-94.602 50.9,-176.699 179.4,-176.699 124,0 177.6,83 177.6,175.898 v 124.903 h -108 V 382.898 c 0,-54.5 -21.4,-85.699 -67.8,-85.699 -47.3,0 -66.9,32.102 -66.9,87.403 v 180.296 h 242.7" /><path
         id="path24"
         style="fill:#49bcdc;fill-opacity:1;fill-rule:nonzero;stroke:none"
         d="m 2591.4,308.801 h -157 V 468.5 h 158.8 c 55.4,0 89.3,-23.199 89.3,-74.898 0,-48.204 -33.9,-84.801 -91.1,-84.801 z m -157,389.097 h 149 c 58,0 82.1,-18.796 82.1,-64.296 0,-41.903 -25.9,-64.204 -75,-64.204 h -156.1 z m 278.4,-169.597 c 41.1,17 72.3,59.801 72.3,110.699 0,99 -62.5,161.5 -178.5,161.5 H 2314.8 V 207.898 h 266.8 c 149.1,0 221.3,68.801 221.3,176.704 0,84.796 -40.1,125 -90.1,143.699" /><path
         id="path26"
         style="fill:#49bcdc;fill-opacity:1;fill-rule:nonzero;stroke:none"
         d="M 3109,647 V 379.301 c 0,-47.301 -36.6,-82.102 -89.2,-82.102 -49.1,0 -74.1,27.699 -74.1,82.102 V 647 h -116 V 362.301 c 0,-96.301 68.7,-158.801 160.6,-158.801 54.5,0 102.6,23.199 118.7,62.5 v -71.398 c 0,-58 -38.4,-94.602 -80.3,-94.602 -60.7,0 -91,32.102 -91,83.898 h -108 C 2829.7,70.5 2894.8,0 3023.3,0 3135.8,0 3225,72.3008 3225,196.301 V 647 h -116" /><path
         id="path28"
         style="fill:#49bcdc;fill-opacity:1;fill-rule:nonzero;stroke:none"
         d="M 3634.6,564.898 V 647 H 3391.9 V 765.699 H 3277.7 V 373 c 0,-94.602 50.8,-176.699 179.3,-176.699 124.1,0 177.6,83 177.6,175.898 v 124.903 h -108 V 382.898 c 0,-54.5 -21.4,-85.699 -67.8,-85.699 -47.3,0 -66.9,32.102 -66.9,87.403 v 180.296 h 242.7" /><path
         id="path30"
         style="fill:#49bcdc;fill-opacity:1;fill-rule:nonzero;stroke:none"
         d="m 3880.9,566.699 c 45.5,0 88.4,-31.199 90.1,-96.398 h -179.3 c 4.4,60.699 42.8,96.398 89.2,96.398 z m 5.4,-278.398 c -57.1,0 -94.6,42.801 -98.2,108.801 h 302.5 c 0,174.097 -71.4,261.5 -206.1,261.5 -134.8,0 -212.4,-87.403 -212.4,-223.102 0,-158.801 73.2,-239.199 219.5,-239.199 93.7,0 166,50.898 192.8,141 h -119.6 c -8,-30.301 -41.1,-49 -78.5,-49" /><path
         id="path32"
         style="fill:#e1eef5;fill-opacity:1;fill-rule:nonzero;stroke:none"
         d="m 1965.68,2278.6 c -13.7,-5.5 -26.8,-7.5 -39.3,-7.1 -15.6,0.6 -30.49,-6.2 -41.59,-17.3 l -147.6,-147.6 c -9.71,-9.8 -22.5,-14.6 -35.21,-14.6 -12.79,0 -25.5,4.8 -35.29,14.6 -19.5,19.5 -19.5,51.1 0,70.5 l 142.5,142.5 c 12.79,12.8 19.3,30.5 18.29,48.6 -0.29,6.1 -0.09,12.4 0.7,18.7 5.91,46.7 44.21,84.1 91.01,88.8 60.79,6.1 112.19,-41.1 112.89,-100.5 0.6,-42.5 -27,-80.6 -66.4,-96.6 z m -191.9,-788.8 c 0,-29.2 -25,-52.5 -54.69,-49.7 -26,2.5 -45,25.8 -45,51.8 v 68.3 c 0,21.3 -8.5,41.7 -23.5,56.7 l -54.81,54.8 c -10.7,10.7 -25.19,16.7 -40.29,16.6 -51.2,-0.4 -98.01,30 -111.3,79.4 -3.8,14 -5.41,27.3 -4.81,40.3 0.6,12.8 -5,25.1 -13.99,34.1 l -93.31,93.3 c -23.39,23.4 -36.49,55.1 -36.49,88.2 v 239.1 c 0,33.3 13.19,65.2 36.8,88.8 l 101.1,101.1 c 7.99,8 11.8,19.6 9.19,30.7 -5,21.5 -4.89,44.9 2.3,69.4 13.11,44.2 48.41,79.5 92.6,92.6 23.61,6.9 46.2,7.2 67.21,2.8 12.5,-2.7 25.5,1.3 34.69,10.5 l 93.2,93.2 c 4.71,4.7 8.91,9.8 12.71,15.2 9.3,13.5 12.7,30.4 9.79,46.6 -1.59,9.4 -2.19,19 -1.59,28.9 4.09,63.4 57.6,114.5 120.99,115.6 69.2,1.2 125.6,-54.5 125.6,-123.4 0,-68.2 -55.2,-123.4 -123.39,-123.4 -2.5,0 -5,0.1 -7.41,0.2 -11.99,0.8 -24.09,-0.7 -34.8,-6.2 -9.69,-4.9 -18.59,-11.3 -26.49,-19.2 l -91.11,-91.1 c -10.29,-10.3 -13.7,-25.7 -9.19,-39.7 6.4,-19.7 8.4,-41.4 4.79,-64 -9.19,-57.9 -55.7,-104.4 -113.6,-113.7 -23.69,-3.7 -46.3,-1.3 -66.9,5.8 -12.1,4.2 -25.6,1 -34.79,-8.1 l -65.1,-65.2 c -23.6,-23.5 -36.8,-55.4 -36.8,-88.7 v -156.6 c 0,-33.1 13.1,-64.8 36.49,-88.2 l 50.1,-50.1 c 11.41,-11.4 28,-16.8 43.8,-12.9 13,3.3 27.01,4.3 41.41,2.6 51.9,-5.9 94.09,-48 100,-99.9 1.5,-12.8 0.9,-25.2 -1.6,-37 -3.8,-18.7 1.8,-38.1 15.3,-51.6 l 69.4,-69.5 c 15,-15 23.49,-35.4 23.49,-56.7 z m 487.41,1128.9 0.19,401.5 c -3.8,44.3 -6.49,91.4 -24.09,132.6 -72.6,170.7 -347.11,171.7 -469.61,58.2 -31.9,-29.7 -52.99,-76.2 -98.2,-88.1 -22.4,-5.9 -48.29,-4.9 -71.3,-9.6 -142.09,-29.8 -290.7,-190.4 -303.29,-336.1 -3.01,-36.1 3.29,-71 -25.2,-99.5 -28.91,-28.8 -64.2,-46.2 -94.51,-79.1 -88.7,-96.4 -127.79,-208.8 -105.99,-340.5 0.29,-1.7 0.5,-3.5 0.99,-5.2 0.6,-3.4 1.61,-6.8 2.61,-10.4 0.6,-1.8 1.09,-3.6 1.69,-5.3 0.41,-1.5 0.91,-3 1.41,-4.5 0.59,-1.8 1.19,-3.4 1.79,-5.2 5.21,-15.2 10.91,-30.9 12.71,-45.6 0.1,-1 0.2,-1.9 0.29,-2.9 0.31,-1.1 0.41,-2.3 0.31,-3.5 -0.4,-6.9 -1.7,-14.2 -3.6,-21.4 -5.31,-20.4 -15,-41.8 -18.2,-61 -21.8,-131.7 17.29,-244.1 105.99,-340.5 30.31,-32.9 65.6,-50.4 94.51,-79.2 28.49,-28.4 22.19,-63.3 25.2,-99.4 12.59,-145.8 161.2,-306.3 303.29,-336.1 23.01,-4.8 48.9,-3.8 71.3,-9.7 45.21,-11.9 66.3,-58.3 98.2,-88 0.31,-0.3 0.6,-0.5 0.91,-0.8 69.59,-63.9 183.8,-23.2 199.5,70.1 2.2,12.9 3.29,26.7 3.19,41.4 1.11,248.5 -2.5,497.1 1.9,745.4 8.3,59.1 41.4,97 79.81,139.3 11.9,13.1 24.9,26.4 38.29,40 5,5.1 10,10.2 15.31,15.3 4.6,4.7 9.4,9.5 14.09,14.4 13.41,13.5 26.8,27.3 39.71,41.5 9.4,10.3 18.49,20.7 27.09,31.4 1.81,2.1 3.41,4.3 5.1,6.4 1.8,2.1 3.41,4.3 5,6.5 3.41,4.2 6.61,8.6 9.71,13 4.4,6.3 8.8,12.7 12.79,19.1 1.51,2.6 3.1,5.1 4.5,7.7 1.31,2.2 2.71,4.5 3.91,6.8 5.2,9.3 9.79,18.7 13.7,28.4 0.9,2.1 1.79,4.4 2.5,6.6 0.9,2.3 1.79,4.8 2.6,7.1 25.19,75.2 15.8,161 13.9,238.9" /><path
         id="path34"
         style="fill:#49bcdc;fill-opacity:1;fill-rule:nonzero;stroke:none"
         d="m 2611.05,2185.75 c -53.36,-8.34 -96.71,-50.7 -106.83,-103.72 -3.22,-17.01 -3,-33.57 -0.11,-49.03 4.33,-22.45 -1.45,-45.68 -16.68,-62.69 l -82.37,-91.94 v 0 c -19.19,-21.47 -29.79,-49.27 -29.79,-78.07 v -44.43 -145.74 c 0,-15.67 -7.78,-30.24 -20.79,-38.68 -21.57,-13.9 -38.69,-34.02 -48.8,-57.7 -7,-15.79 -10.67,-33.24 -10.67,-51.58 0,-17.45 3.33,-34.02 9.56,-49.14 9.89,-24.45 27.12,-45.13 48.91,-59.47 13.23,-8.78 21.57,-23.23 21.57,-39.13 v -23.12 c 0,-3.23 -0.11,-5.23 -0.23,-6.45 l -0.11,-0.56 v -0.55 c -0.22,-2.67 -0.66,-5.34 -1.11,-7.89 -7.34,-38.36 -41.57,-67.37 -81.26,-67.37 -23.68,0 -45.58,9.89 -61.59,27.68 -11.45,12.78 -18.56,28.57 -20.56,45.36 v 624.08 c 0,41.46 15.23,81.48 42.91,112.28 l 238.34,266.24 24.01,26.79 c 16.9,19.01 26.34,43.58 26.34,69.03 v 616.53 c 0,23.6 11.28,45.57 29.93,60.04 30.67,23.79 50.45,61.02 50.45,102.93 0,73.59 -61.14,132.95 -135.51,130.06 -68.59,-2.67 -124.62,-60.7 -124.95,-129.51 -0.23,-42.02 19.45,-79.48 50.36,-103.38 18.67,-14.57 29.9,-36.58 29.9,-60.14 v -578.4 c 0,-25.45 -9.45,-50.02 -26.35,-69.03 L 2153.16,2055.9 c -27.57,-30.9 -42.8,-70.81 -42.8,-112.16 v -536.26 c -0.55,-5.01 -0.89,-10.12 -0.89,-15.23 v -100.94 c 0,-46.8 17.79,-89.6 46.8,-121.95 33.58,-37.35 82.15,-60.92 136.07,-60.92 94.94,0 173.53,73.37 181.98,166.3 0.55,5.45 0.78,11.01 0.78,16.57 v 23.01 c 0,15.9 8.44,30.35 21.67,39.13 21.68,14.23 38.69,34.68 48.81,58.81 6.33,15.34 9.89,32.23 9.89,49.91 0,14.56 -2.34,28.46 -6.89,41.46 v 0.12 c -0.89,2.89 -1.89,5.66 -3,8.33 -10.01,24.01 -27.02,44.25 -48.47,58.48 -13.45,8.78 -22.01,23.34 -22.01,39.46 v 152.18 c 0,28.85 10.64,56.69 29.89,78.18 l 57.93,64.67 c 14.78,16.57 36.68,24.13 58.8,22.24 13.9,-1.12 28.35,0 43.36,3.89 50.47,13.23 89.26,56.47 96.04,108.16 11.57,86.93 -62.8,160.08 -150.07,146.41" /><path
         id="path36"
         style="fill:#49bcdc;fill-opacity:1;fill-rule:nonzero;stroke:none"
         d="m 3010.88,2172.34 -95.38,136.29 c -4.78,6.78 -7.33,14.89 -7.33,23.23 v 157.85 c 0,26.79 13.22,51.25 34.12,68.04 30.91,24.57 50.58,62.47 50.58,105.05 0,75.93 -62.69,137.18 -139.29,134.62 -71.25,-2.33 -129.51,-62.37 -130.06,-133.62 -0.33,-44.02 20.57,-83.15 53.02,-107.94 20.46,-15.68 31.8,-40.36 31.8,-66.04 v -189.53 c 0,-8.34 2.56,-16.45 7.34,-23.24 l 95.38,-136.28 c 10.67,-15.23 16.45,-33.47 16.45,-52.03 v -55.69 c 0,-18.68 -5.78,-36.91 -16.45,-52.25 l -73.04,-104.27 -32.81,-46.9 c -13.52,-19.33 -20.77,-42.35 -20.77,-65.94 v -45.87 c 0,-18.18 -8.59,-35.67 -23.8,-45.63 -36.7,-24.02 -60.96,-65.42 -61,-112.55 -0.04,-71.36 58.01,-131.9 129.31,-134.69 76.85,-2.99 140.09,58.42 140.09,134.59 0,46.27 -23.36,87.03 -58.91,111.26 -15.75,10.74 -25.87,27.93 -25.87,47 v 14.42 c 0,23.6 7.26,46.62 20.79,65.95 l 105.72,151.06 c 10.78,15.34 16.56,33.57 16.56,52.36 v 118.61 c 0,18.68 -5.78,36.91 -16.45,52.14" /></g></g></svg>